<?xml version="1.0" encoding="UTF-8"?>
<svg xmlns="http://www.w3.org/2000/svg" xmlns:xlink="http://www.w3.org/1999/xlink" width="230pt" height="49pt" viewBox="0 0 230 49" version="1.1">
<defs>
<clipPath id="clip1">
  <path d="M 54 25 L 59 25 L 59 33 L 54 33 Z M 54 25 "/>
</clipPath>
<clipPath id="clip2">
  <path d="M 56.371094 30.191406 L 58.820312 32.832031 L 56.136719 27.46875 L 54.179688 25.355469 Z M 56.371094 30.191406 "/>
</clipPath>
<linearGradient id="linear0" gradientUnits="userSpaceOnUse" x1="0.283705" y1="0.700743" x2="0.715745" y2="0.299908" gradientTransform="matrix(12.070312,0,0,12.113281,50.464844,23.035156)">
<stop offset="0" style="stop-color:rgb(35.686275%,38.039216%,50.588235%);stop-opacity:1;"/>
<stop offset="1" style="stop-color:rgb(67.45098%,81.176471%,89.411765%);stop-opacity:1;"/>
</linearGradient>
<clipPath id="clip3">
  <path d="M 2 25 L 57 25 L 57 31 L 2 31 Z M 2 25 "/>
</clipPath>
<clipPath id="clip4">
  <path d="M 11.226562 25.355469 L 2.679688 30.191406 L 56.371094 30.191406 L 54.179688 25.355469 Z M 11.226562 25.355469 "/>
</clipPath>
<linearGradient id="linear1" gradientUnits="userSpaceOnUse" x1="0.50062" y1="1.000496" x2="0.50062" y2="0.000396685" gradientTransform="matrix(53.691406,0,0,4.835938,2.679688,25.355469)">
<stop offset="0" style="stop-color:rgb(16.470588%,19.607843%,40.392157%);stop-opacity:1;"/>
<stop offset="1" style="stop-color:rgb(38.039216%,62.745098%,80%);stop-opacity:1;"/>
</linearGradient>
<clipPath id="clip5">
  <path d="M 50 20 L 54 20 L 54 28 L 50 28 Z M 50 20 "/>
</clipPath>
<clipPath id="clip6">
  <path d="M 50.082031 20.925781 L 51.246094 24.65625 L 53.804688 27.425781 L 52.132812 23.140625 Z M 50.082031 20.925781 "/>
</clipPath>
<linearGradient id="linear2" gradientUnits="userSpaceOnUse" x1="0.288456" y1="0.697315" x2="0.71246" y2="0.303975" gradientTransform="matrix(10.183594,0,0,10.21875,46.851562,19.066406)">
<stop offset="0" style="stop-color:rgb(35.686275%,38.039216%,50.588235%);stop-opacity:1;"/>
<stop offset="1" style="stop-color:rgb(67.45098%,81.176471%,89.411765%);stop-opacity:1;"/>
</linearGradient>
<clipPath id="clip7">
  <path d="M 8 20 L 52 20 L 52 25 L 8 25 Z M 8 20 "/>
</clipPath>
<clipPath id="clip8">
  <path d="M 15.710938 20.925781 L 8.285156 24.65625 L 51.246094 24.65625 L 50.082031 20.925781 Z M 15.710938 20.925781 "/>
</clipPath>
<linearGradient id="linear3" gradientUnits="userSpaceOnUse" x1="0.501112" y1="0.999196" x2="0.501112" y2="-0.000806536" gradientTransform="matrix(42.960938,0,0,3.730469,8.285156,20.925781)">
<stop offset="0" style="stop-color:rgb(16.470588%,19.607843%,40.392157%);stop-opacity:1;"/>
<stop offset="1" style="stop-color:rgb(38.039216%,62.745098%,80%);stop-opacity:1;"/>
</linearGradient>
<clipPath id="clip9">
  <path d="M 46 16 L 49 16 L 49 22 L 46 22 Z M 46 16 "/>
</clipPath>
<clipPath id="clip10">
  <path d="M 46.015625 16.535156 L 46.167969 19.160156 L 48.6875 21.882812 L 48.03125 18.710938 Z M 46.015625 16.535156 "/>
</clipPath>
<linearGradient id="linear4" gradientUnits="userSpaceOnUse" x1="0.29744" y1="0.687917" x2="0.703046" y2="0.312161" gradientTransform="matrix(7.988281,0,0,8.019531,43.359375,15.199219)">
<stop offset="0" style="stop-color:rgb(35.686275%,38.039216%,50.588235%);stop-opacity:1;"/>
<stop offset="1" style="stop-color:rgb(67.45098%,81.176471%,89.411765%);stop-opacity:1;"/>
</linearGradient>
<clipPath id="clip11">
  <path d="M 13 16 L 47 16 L 47 20 L 13 20 Z M 13 16 "/>
</clipPath>
<clipPath id="clip12">
  <path d="M 20.234375 16.535156 L 13.941406 19.160156 L 46.167969 19.160156 L 46.015625 16.535156 Z M 20.234375 16.535156 "/>
</clipPath>
<linearGradient id="linear5" gradientUnits="userSpaceOnUse" x1="0.49977" y1="0.999782" x2="0.49977" y2="-0.000190995" gradientTransform="matrix(32.226562,0,0,2.625,13.941406,16.535156)">
<stop offset="0" style="stop-color:rgb(16.470588%,19.607843%,40.392157%);stop-opacity:1;"/>
<stop offset="1" style="stop-color:rgb(38.039216%,62.745098%,80%);stop-opacity:1;"/>
</linearGradient>
<clipPath id="clip13">
  <path d="M 41 12 L 44 12 L 44 17 L 41 17 Z M 41 12 "/>
</clipPath>
<clipPath id="clip14">
  <path d="M 41 13.582031 L 43.5625 16.308594 L 43.9375 14.246094 L 41.882812 12.066406 Z M 41 13.582031 "/>
</clipPath>
<linearGradient id="linear6" gradientUnits="userSpaceOnUse" x1="0.270044" y1="0.71636" x2="0.72837" y2="0.284106" gradientTransform="matrix(7.160156,0,0,7.179687,38.886719,10.597656)">
<stop offset="0" style="stop-color:rgb(35.686275%,38.039216%,50.588235%);stop-opacity:1;"/>
<stop offset="1" style="stop-color:rgb(67.45098%,81.176471%,89.411765%);stop-opacity:1;"/>
</linearGradient>
<clipPath id="clip15">
  <path d="M 19 12 L 42 12 L 42 14 L 19 14 Z M 19 12 "/>
</clipPath>
<clipPath id="clip16">
  <path d="M 24.691406 12.066406 L 19.5 13.582031 L 41 13.582031 L 41.882812 12.066406 Z M 24.691406 12.066406 "/>
</clipPath>
<linearGradient id="linear7" gradientUnits="userSpaceOnUse" x1="0.500762" y1="0.999638" x2="0.500762" y2="-0.000480416" gradientTransform="matrix(22.382812,0,0,1.515625,19.5,12.066406)">
<stop offset="0" style="stop-color:rgb(16.470588%,19.607843%,40.392157%);stop-opacity:1;"/>
<stop offset="1" style="stop-color:rgb(38.039216%,62.745098%,80%);stop-opacity:1;"/>
</linearGradient>
<clipPath id="clip17">
  <path d="M 35 7 L 40 7 L 40 11 L 35 11 Z M 35 7 "/>
</clipPath>
<clipPath id="clip18">
  <path d="M 35.871094 8.046875 L 38.4375 10.769531 L 39.835938 9.824219 L 37.78125 7.632812 Z M 35.871094 8.046875 "/>
</clipPath>
<linearGradient id="linear8" gradientUnits="userSpaceOnUse" x1="0.252082" y1="0.732457" x2="0.74488" y2="0.267465" gradientTransform="matrix(7.085937,0,0,7.105469,34.3125,5.648438)">
<stop offset="0" style="stop-color:rgb(35.686275%,38.039216%,50.588235%);stop-opacity:1;"/>
<stop offset="1" style="stop-color:rgb(67.45098%,81.176471%,89.411765%);stop-opacity:1;"/>
</linearGradient>
<clipPath id="clip19">
  <path d="M 25 7 L 38 7 L 38 9 L 25 9 Z M 25 7 "/>
</clipPath>
<clipPath id="clip20">
  <path d="M 29.171875 7.632812 L 25.113281 8.046875 L 35.871094 8.046875 L 37.78125 7.632812 Z M 29.171875 7.632812 "/>
</clipPath>
<linearGradient id="linear9" gradientUnits="userSpaceOnUse" x1="0.500167" y1="0.999217" x2="0.500167" y2="-0.000761425" gradientTransform="matrix(12.667969,0,0,0.414062,25.113281,7.632812)">
<stop offset="0" style="stop-color:rgb(16.470588%,19.607843%,40.392157%);stop-opacity:1;"/>
<stop offset="1" style="stop-color:rgb(38.039216%,62.745098%,80%);stop-opacity:1;"/>
</linearGradient>
<clipPath id="clip21">
  <path d="M 30 2 L 36 2 L 36 6 L 30 6 Z M 30 2 "/>
</clipPath>
<clipPath id="clip22">
  <path d="M 30.734375 2.5 L 33.3125 5.277344 L 35.738281 5.421875 L 33.679688 3.199219 L 30.742188 2.496094 Z M 30.734375 2.5 "/>
</clipPath>
<linearGradient id="linear10" gradientUnits="userSpaceOnUse" x1="0.27092" y1="0.713101" x2="0.731369" y2="0.285323" gradientTransform="matrix(7.910156,0,0,7.933594,29.28125,-0.0078125)">
<stop offset="0" style="stop-color:rgb(35.686275%,38.039216%,50.588235%);stop-opacity:1;"/>
<stop offset="1" style="stop-color:rgb(67.45098%,81.176471%,89.411765%);stop-opacity:1;"/>
</linearGradient>
<clipPath id="clip23">
  <path d="M 27 5 L 36 5 L 36 6 L 27 6 Z M 27 5 "/>
</clipPath>
<clipPath id="clip24">
  <path d="M 27.921875 5.277344 L 31.421875 5.421875 L 35.738281 5.421875 L 33.3125 5.277344 Z M 27.921875 5.277344 "/>
</clipPath>
<clipPath id="clip25">
  <path d="M 54 38 L 59 38 L 59 47 L 54 47 Z M 54 38 "/>
</clipPath>
<clipPath id="clip26">
  <path d="M 56.371094 44.015625 L 58.816406 46.660156 L 58.816406 46.65625 L 56.253906 40.632812 L 54.304688 38.523438 Z M 56.371094 44.015625 "/>
</clipPath>
<linearGradient id="linear11" gradientUnits="userSpaceOnUse" x1="0.286753" y1="0.698131" x2="0.713792" y2="0.301995" gradientTransform="matrix(12.605469,0,0,12.65625,50.257812,36.261719)">
<stop offset="0" style="stop-color:rgb(35.686275%,38.039216%,50.588235%);stop-opacity:1;"/>
<stop offset="1" style="stop-color:rgb(67.45098%,81.176471%,89.411765%);stop-opacity:1;"/>
</linearGradient>
<clipPath id="clip27">
  <path d="M 2 38 L 57 38 L 57 45 L 2 45 Z M 2 38 "/>
</clipPath>
<clipPath id="clip28">
  <path d="M 11.347656 38.523438 L 2.679688 44.015625 L 56.371094 44.015625 L 54.304688 38.523438 Z M 11.347656 38.523438 "/>
</clipPath>
<linearGradient id="linear12" gradientUnits="userSpaceOnUse" x1="0.499751" y1="0.999772" x2="0.499751" y2="-0.000241041" gradientTransform="matrix(53.691406,0,0,5.492188,2.679688,38.523437)">
<stop offset="0" style="stop-color:rgb(16.470588%,19.607843%,40.392157%);stop-opacity:1;"/>
<stop offset="1" style="stop-color:rgb(38.039216%,62.745098%,80%);stop-opacity:1;"/>
</linearGradient>
<clipPath id="clip29">
  <path d="M 50 34 L 54 34 L 54 42 L 50 42 Z M 50 34 "/>
</clipPath>
<clipPath id="clip30">
  <path d="M 50.199219 34.09375 L 51.246094 38.480469 L 53.804688 41.246094 L 52.25 36.308594 Z M 50.199219 34.09375 "/>
</clipPath>
<linearGradient id="linear13" gradientUnits="userSpaceOnUse" x1="0.29767" y1="0.68749" x2="0.702351" y2="0.31213" gradientTransform="matrix(10.722656,0,0,10.761719,46.640625,32.289062)">
<stop offset="0" style="stop-color:rgb(35.686275%,38.039216%,50.588235%);stop-opacity:1;"/>
<stop offset="1" style="stop-color:rgb(67.45098%,81.176471%,89.411765%);stop-opacity:1;"/>
</linearGradient>
<clipPath id="clip31">
  <path d="M 8 34 L 52 34 L 52 39 L 8 39 Z M 8 34 "/>
</clipPath>
<clipPath id="clip32">
  <path d="M 15.828125 34.089844 L 8.285156 38.480469 L 51.246094 38.480469 L 50.199219 34.089844 Z M 15.828125 34.089844 "/>
</clipPath>
<linearGradient id="linear14" gradientUnits="userSpaceOnUse" x1="0.500216" y1="0.999178" x2="0.500216" y2="-0.000877694" gradientTransform="matrix(42.960938,0,0,4.390625,8.285156,34.089844)">
<stop offset="0" style="stop-color:rgb(16.470588%,19.607843%,40.392157%);stop-opacity:1;"/>
<stop offset="1" style="stop-color:rgb(38.039216%,62.745098%,80%);stop-opacity:1;"/>
</linearGradient>
<clipPath id="clip33">
  <path d="M 46 29 L 49 29 L 49 36 L 46 36 Z M 46 29 "/>
</clipPath>
<clipPath id="clip34">
  <path d="M 46.136719 29.695312 L 46.167969 32.980469 L 48.6875 35.703125 L 48.148438 31.875 Z M 46.136719 29.695312 "/>
</clipPath>
<linearGradient id="linear15" gradientUnits="userSpaceOnUse" x1="0.306159" y1="0.679316" x2="0.693819" y2="0.320273" gradientTransform="matrix(8.527344,0,0,8.5625,43.148438,28.417969)">
<stop offset="0" style="stop-color:rgb(35.686275%,38.039216%,50.588235%);stop-opacity:1;"/>
<stop offset="1" style="stop-color:rgb(67.45098%,81.176471%,89.411765%);stop-opacity:1;"/>
</linearGradient>
<clipPath id="clip35">
  <path d="M 13 29 L 47 29 L 47 33 L 13 33 Z M 13 29 "/>
</clipPath>
<clipPath id="clip36">
  <path d="M 20.355469 29.695312 L 13.941406 32.980469 L 46.167969 32.980469 L 46.136719 29.695312 Z M 20.355469 29.695312 "/>
</clipPath>
<linearGradient id="linear16" gradientUnits="userSpaceOnUse" x1="0.499673" y1="1.000098" x2="0.499673" y2="0.0000325057" gradientTransform="matrix(32.226562,0,0,3.285156,13.941406,29.695312)">
<stop offset="0" style="stop-color:rgb(16.470588%,19.607843%,40.392157%);stop-opacity:1;"/>
<stop offset="1" style="stop-color:rgb(38.039216%,62.745098%,80%);stop-opacity:1;"/>
</linearGradient>
<clipPath id="clip37">
  <path d="M 41 25 L 45 25 L 45 31 L 41 31 Z M 41 25 "/>
</clipPath>
<clipPath id="clip38">
  <path d="M 41 27.398438 L 43.5625 30.132812 L 44.050781 27.40625 L 42 25.234375 Z M 41 27.398438 "/>
</clipPath>
<linearGradient id="linear17" gradientUnits="userSpaceOnUse" x1="0.280467" y1="0.707455" x2="0.719223" y2="0.2937" gradientTransform="matrix(7.925781,0,0,7.953125,38.5625,23.707031)">
<stop offset="0" style="stop-color:rgb(35.686275%,38.039216%,50.588235%);stop-opacity:1;"/>
<stop offset="1" style="stop-color:rgb(67.45098%,81.176471%,89.411765%);stop-opacity:1;"/>
</linearGradient>
<clipPath id="clip39">
  <path d="M 19 25 L 42 25 L 42 28 L 19 28 Z M 19 25 "/>
</clipPath>
<clipPath id="clip40">
  <path d="M 24.804688 25.234375 L 19.5 27.398438 L 41 27.398438 L 42 25.234375 Z M 24.804688 25.234375 "/>
</clipPath>
<linearGradient id="linear18" gradientUnits="userSpaceOnUse" x1="0.500174" y1="0.999759" x2="0.500174" y2="-0.0000546854" gradientTransform="matrix(22.5,0,0,2.164062,19.5,25.234375)">
<stop offset="0" style="stop-color:rgb(16.470588%,19.607843%,40.392157%);stop-opacity:1;"/>
<stop offset="1" style="stop-color:rgb(38.039216%,62.745098%,80%);stop-opacity:1;"/>
</linearGradient>
<clipPath id="clip41">
  <path d="M 35 20 L 40 20 L 40 25 L 35 25 Z M 35 20 "/>
</clipPath>
<clipPath id="clip42">
  <path d="M 35.871094 21.871094 L 38.4375 24.59375 L 39.953125 22.984375 L 37.910156 20.804688 Z M 35.871094 21.871094 "/>
</clipPath>
<linearGradient id="linear19" gradientUnits="userSpaceOnUse" x1="0.243158" y1="0.742481" x2="0.760755" y2="0.254138" gradientTransform="matrix(7.851563,0,0,7.875,33.988281,18.761719)">
<stop offset="0" style="stop-color:rgb(35.686275%,38.039216%,50.588235%);stop-opacity:1;"/>
<stop offset="1" style="stop-color:rgb(67.45098%,81.176471%,89.411765%);stop-opacity:1;"/>
</linearGradient>
<clipPath id="clip43">
  <path d="M 25 20 L 38 20 L 38 22 L 25 22 Z M 25 20 "/>
</clipPath>
<clipPath id="clip44">
  <path d="M 29.296875 20.804688 L 25.113281 21.871094 L 35.871094 21.871094 L 37.910156 20.804688 Z M 29.296875 20.804688 "/>
</clipPath>
<linearGradient id="linear20" gradientUnits="userSpaceOnUse" x1="0.500223" y1="0.999767" x2="0.500223" y2="-0.000367579" gradientTransform="matrix(12.796875,0,0,1.066406,25.113281,20.804687)">
<stop offset="0" style="stop-color:rgb(16.470588%,19.607843%,40.392157%);stop-opacity:1;"/>
<stop offset="1" style="stop-color:rgb(38.039216%,62.745098%,80%);stop-opacity:1;"/>
</linearGradient>
<clipPath id="clip45">
  <path d="M 30 16 L 36 16 L 36 20 L 30 20 Z M 30 16 "/>
</clipPath>
<clipPath id="clip46">
  <path d="M 30.734375 16.320312 L 33.3125 19.097656 L 35.855469 18.585938 L 33.792969 16.363281 L 30.738281 16.316406 Z M 30.734375 16.320312 "/>
</clipPath>
<linearGradient id="linear21" gradientUnits="userSpaceOnUse" x1="0.279309" y1="0.705198" x2="0.721309" y2="0.294537" gradientTransform="matrix(7.882812,0,0,7.902344,29.351563,13.757812)">
<stop offset="0" style="stop-color:rgb(35.686275%,38.039216%,50.588235%);stop-opacity:1;"/>
<stop offset="1" style="stop-color:rgb(67.45098%,81.176471%,89.411765%);stop-opacity:1;"/>
</linearGradient>
</defs>
<g id="surface1">
<g clip-path="url(#clip1)" clip-rule="nonzero">
<g clip-path="url(#clip2)" clip-rule="nonzero">
<path style=" stroke:none;fill-rule:nonzero;fill:url(#linear0);" d="M 56.328125 35.148438 L 62.535156 29.371094 L 56.671875 23.035156 L 50.464844 28.816406 Z M 56.328125 35.148438 "/>
</g>
</g>
<path style="fill:none;stroke-width:0.216;stroke-linecap:butt;stroke-linejoin:bevel;stroke:rgb(100%,100%,100%);stroke-opacity:1;stroke-miterlimit:22.926;" d="M 164.952615 91.795679 L 157.426885 76.800383 L 151.949643 70.891821 L 158.084154 84.412707 Z M 164.952615 91.795679 " transform="matrix(0.356589,0,0,0.357664,0,0)"/>
<g clip-path="url(#clip3)" clip-rule="nonzero">
<g clip-path="url(#clip4)" clip-rule="nonzero">
<path style=" stroke:none;fill-rule:nonzero;fill:url(#linear1);" d="M 2.679688 25.355469 L 56.371094 25.355469 L 56.371094 30.191406 L 2.679688 30.191406 Z M 2.679688 25.355469 "/>
</g>
</g>
<path style="fill:none;stroke-width:0.216;stroke-linecap:butt;stroke-linejoin:bevel;stroke:rgb(100%,100%,100%);stroke-opacity:1;stroke-miterlimit:22.926;" d="M 158.084154 84.412707 L 151.938689 70.891821 L 31.483186 70.891821 L 7.514776 84.412707 Z M 158.084154 84.412707 " transform="matrix(0.356589,0,0,0.357664,0,0)"/>
<g clip-path="url(#clip5)" clip-rule="nonzero">
<g clip-path="url(#clip6)" clip-rule="nonzero">
<path style=" stroke:none;fill-rule:nonzero;fill:url(#linear2);" d="M 51.804688 29.285156 L 57.035156 24.417969 L 52.082031 19.066406 L 46.851562 23.933594 Z M 51.804688 29.285156 "/>
</g>
</g>
<path style="fill:none;stroke-width:0.216;stroke-linecap:butt;stroke-linejoin:bevel;stroke:rgb(100%,100%,100%);stroke-opacity:1;stroke-miterlimit:22.926;" d="M 150.887058 76.680246 L 146.198539 64.699298 L 140.447435 58.506776 L 143.711872 68.936862 Z M 150.887058 76.680246 " transform="matrix(0.356589,0,0,0.357664,0,0)"/>
<g clip-path="url(#clip7)" clip-rule="nonzero">
<g clip-path="url(#clip8)" clip-rule="nonzero">
<path style=" stroke:none;fill-rule:nonzero;fill:url(#linear3);" d="M 8.285156 20.925781 L 51.246094 20.925781 L 51.246094 24.65625 L 8.285156 24.65625 Z M 8.285156 20.925781 "/>
</g>
</g>
<path style="fill:none;stroke-width:0.216;stroke-linecap:butt;stroke-linejoin:bevel;stroke:rgb(100%,100%,100%);stroke-opacity:1;stroke-miterlimit:22.926;" d="M 143.711872 68.936862 L 140.436481 58.506776 L 44.058933 58.506776 L 23.23446 68.936862 Z M 143.711872 68.936862 " transform="matrix(0.356589,0,0,0.357664,0,0)"/>
<g clip-path="url(#clip9)" clip-rule="nonzero">
<g clip-path="url(#clip10)" clip-rule="nonzero">
<path style=" stroke:none;fill-rule:nonzero;fill:url(#linear4);" d="M 47.253906 23.21875 L 51.347656 19.410156 L 47.453125 15.199219 L 43.359375 19.007812 Z M 47.253906 23.21875 "/>
</g>
</g>
<path style="fill:none;stroke-width:0.216;stroke-linecap:butt;stroke-linejoin:bevel;stroke:rgb(100%,100%,100%);stroke-opacity:1;stroke-miterlimit:22.926;" d="M 136.547639 61.193479 L 134.696332 52.314254 L 129.043818 46.230947 L 129.471043 53.581154 Z M 136.547639 61.193479 " transform="matrix(0.356589,0,0,0.357664,0,0)"/>
<g clip-path="url(#clip11)" clip-rule="nonzero">
<g clip-path="url(#clip12)" clip-rule="nonzero">
<path style=" stroke:none;fill-rule:nonzero;fill:url(#linear5);" d="M 13.941406 16.535156 L 46.167969 16.535156 L 46.167969 19.160156 L 13.941406 19.160156 Z M 13.941406 16.535156 "/>
</g>
</g>
<path style="fill:none;stroke-width:0.216;stroke-linecap:butt;stroke-linejoin:bevel;stroke:rgb(100%,100%,100%);stroke-opacity:1;stroke-miterlimit:22.926;" d="M 129.471043 53.581154 L 129.043818 46.230947 L 56.744226 46.230947 L 39.096552 53.581154 Z M 129.471043 53.581154 " transform="matrix(0.356589,0,0,0.357664,0,0)"/>
<g clip-path="url(#clip13)" clip-rule="nonzero">
<g clip-path="url(#clip14)" clip-rule="nonzero">
<path style=" stroke:none;fill-rule:nonzero;fill:url(#linear6);" d="M 42.382812 17.777344 L 46.046875 14.3125 L 42.554688 10.597656 L 38.886719 14.0625 Z M 42.382812 17.777344 "/>
</g>
</g>
<path style="fill:none;stroke-width:0.216;stroke-linecap:butt;stroke-linejoin:bevel;stroke:rgb(100%,100%,100%);stroke-opacity:1;stroke-miterlimit:22.926;" d="M 122.164402 45.597497 L 123.216033 39.830915 L 117.453974 33.736687 L 114.978261 37.974251 Z M 122.164402 45.597497 " transform="matrix(0.356589,0,0,0.357664,0,0)"/>
<g clip-path="url(#clip15)" clip-rule="nonzero">
<g clip-path="url(#clip16)" clip-rule="nonzero">
<path style=" stroke:none;fill-rule:nonzero;fill:url(#linear7);" d="M 19.5 12.066406 L 41.882812 12.066406 L 41.882812 13.582031 L 19.5 13.582031 Z M 19.5 12.066406 "/>
</g>
</g>
<path style="fill:none;stroke-width:0.216;stroke-linecap:butt;stroke-linejoin:bevel;stroke:rgb(100%,100%,100%);stroke-opacity:1;stroke-miterlimit:22.926;" d="M 114.978261 37.974251 L 117.453974 33.736687 L 69.221382 33.736687 L 54.684783 37.974251 Z M 114.978261 37.974251 " transform="matrix(0.356589,0,0,0.357664,0,0)"/>
<g clip-path="url(#clip17)" clip-rule="nonzero">
<g clip-path="url(#clip18)" clip-rule="nonzero">
<path style=" stroke:none;fill-rule:nonzero;fill:url(#linear8);" d="M 37.738281 12.753906 L 41.398438 9.292969 L 37.96875 5.648438 L 34.3125 9.109375 Z M 37.738281 12.753906 "/>
</g>
</g>
<path style="fill:none;stroke-width:0.216;stroke-linecap:butt;stroke-linejoin:bevel;stroke:rgb(100%,100%,100%);stroke-opacity:1;stroke-miterlimit:22.926;" d="M 107.79212 30.11073 L 111.713825 27.467714 L 105.940812 21.340721 L 100.595024 22.498406 Z M 107.79212 30.11073 " transform="matrix(0.356589,0,0,0.357664,0,0)"/>
<g clip-path="url(#clip19)" clip-rule="nonzero">
<g clip-path="url(#clip20)" clip-rule="nonzero">
<path style=" stroke:none;fill-rule:nonzero;fill:url(#linear9);" d="M 25.113281 7.632812 L 37.78125 7.632812 L 37.78125 8.046875 L 25.113281 8.046875 Z M 25.113281 7.632812 "/>
</g>
</g>
<path style="fill:none;stroke-width:0.216;stroke-linecap:butt;stroke-linejoin:bevel;stroke:rgb(100%,100%,100%);stroke-opacity:1;stroke-miterlimit:22.926;" d="M 100.595024 22.498406 L 105.951766 21.351642 L 81.808084 21.351642 L 70.426376 22.498406 Z M 100.595024 22.498406 " transform="matrix(0.356589,0,0,0.357664,0,0)"/>
<g clip-path="url(#clip21)" clip-rule="nonzero">
<g clip-path="url(#clip22)" clip-rule="nonzero">
<path style=" stroke:none;fill-rule:nonzero;fill:url(#linear10);" d="M 33.050781 7.925781 L 37.191406 4.066406 L 33.421875 -0.0078125 L 29.28125 3.851562 Z M 33.050781 7.925781 "/>
</g>
</g>
<path style="fill:none;stroke-width:0.216;stroke-linecap:butt;stroke-linejoin:bevel;stroke:rgb(100%,100%,100%);stroke-opacity:1;stroke-miterlimit:22.926;" d="M 93.419837 14.755022 L 100.200662 15.15912 L 94.449558 8.966598 L 86.189878 6.989796 Z M 93.419837 14.755022 " transform="matrix(0.356589,0,0,0.357664,0,0)"/>
<g clip-path="url(#clip23)" clip-rule="nonzero">
<g clip-path="url(#clip24)" clip-rule="nonzero">
<path style=" stroke:none;fill-rule:nonzero;fill:rgb(1.568627%,2.352941%,2.745098%);fill-opacity:1;" d="M 27.921875 5.277344 L 35.738281 5.277344 L 35.738281 5.421875 L 27.921875 5.421875 Z M 27.921875 5.277344 "/>
</g>
</g>
<path style="fill:none;stroke-width:0.216;stroke-linecap:butt;stroke-linejoin:bevel;stroke:rgb(100%,100%,100%);stroke-opacity:1;stroke-miterlimit:22.926;" d="M 78.302649 14.755022 L 88.117867 15.15912 L 100.222571 15.15912 L 93.419837 14.755022 Z M 78.302649 14.755022 " transform="matrix(0.356589,0,0,0.357664,0,0)"/>
<path style="fill:none;stroke-width:0.216;stroke-linecap:butt;stroke-linejoin:bevel;stroke:rgb(100%,100%,100%);stroke-opacity:1;stroke-miterlimit:22.926;" d="M 93.419837 14.755022 L 86.189878 6.989796 L 78.302649 14.755022 Z M 107.79212 30.11073 L 100.595024 22.498406 L 70.426376 22.498406 L 62.561056 30.11073 Z M 122.164402 45.597497 L 114.978261 37.974251 L 54.684783 37.974251 L 46.819463 45.597497 Z M 136.547639 61.193479 L 129.471043 53.581154 L 39.096552 53.581154 L 31.099779 61.193479 Z M 150.887058 76.680246 L 143.711872 68.936862 L 23.23446 68.936862 L 15.358186 76.680246 Z M 164.952615 91.795679 L 158.084154 84.412707 L 7.514776 84.412707 L 0 91.795679 Z M 164.952615 91.795679 " transform="matrix(0.356589,0,0,0.357664,0,0)"/>
<path style=" stroke:none;fill-rule:nonzero;fill:rgb(100%,100%,100%);fill-opacity:1;" d="M 2.679688 30.191406 L 0 32.832031 L 58.820312 32.832031 L 56.371094 30.191406 Z M 8.285156 24.65625 L 5.476562 27.425781 L 53.804688 27.425781 L 51.246094 24.65625 Z M 13.941406 19.160156 L 11.089844 21.886719 L 48.691406 21.886719 L 46.167969 19.160156 Z M 19.5 13.582031 L 16.699219 16.308594 L 43.558594 16.308594 L 41 13.582031 Z M 25.113281 8.046875 L 22.308594 10.769531 L 38.4375 10.769531 L 35.871094 8.046875 Z M 27.921875 5.277344 L 33.3125 5.277344 L 30.734375 2.492188 Z M 27.921875 5.277344 "/>
<path style="fill-rule:nonzero;fill:rgb(100%,100%,100%);fill-opacity:1;stroke-width:1;stroke-linecap:butt;stroke-linejoin:miter;stroke:rgb(1.176471%,16.862745%,34.117647%);stroke-opacity:1;stroke-miterlimit:4;" d="M 7.536685 84.412707 L 0.0438179 91.773836 L 164.897843 91.773836 L 158.062245 84.412707 Z M 23.245414 68.936862 L 15.412959 76.658402 L 150.865149 76.658402 L 143.689963 68.936862 Z M 39.096552 53.570233 L 31.132643 61.182557 L 136.492867 61.182557 L 129.449134 53.570233 Z M 54.706692 37.996094 L 46.852327 45.597497 L 122.153448 45.597497 L 114.956352 37.996094 Z M 70.43733 22.520249 L 62.572011 30.11073 L 107.759256 30.11073 L 100.595024 22.520249 Z M 78.313604 14.755022 L 93.397928 14.755022 L 86.189878 7.011639 Z M 78.313604 14.755022 " transform="matrix(0.356589,0,0,0.357664,0,0)"/>
<g clip-path="url(#clip25)" clip-rule="nonzero">
<g clip-path="url(#clip26)" clip-rule="nonzero">
<path style=" stroke:none;fill-rule:nonzero;fill:url(#linear11);" d="M 56.394531 48.917969 L 62.863281 42.890625 L 56.726562 36.261719 L 50.257812 42.289062 Z M 56.394531 48.917969 "/>
</g>
</g>
<path style="fill:none;stroke-width:0.216;stroke-linecap:butt;stroke-linejoin:bevel;stroke:rgb(100%,100%,100%);stroke-opacity:1;stroke-miterlimit:22.926;" d="M 164.952615 130.457988 L 157.766474 113.606027 L 152.289232 107.708386 L 158.084154 123.064094 Z M 164.952615 130.457988 " transform="matrix(0.356589,0,0,0.357664,0,0)"/>
<g clip-path="url(#clip27)" clip-rule="nonzero">
<g clip-path="url(#clip28)" clip-rule="nonzero">
<path style=" stroke:none;fill-rule:nonzero;fill:url(#linear12);" d="M 2.679688 38.523438 L 56.371094 38.523438 L 56.371094 44.015625 L 2.679688 44.015625 Z M 2.679688 38.523438 "/>
</g>
</g>
<path style="fill:none;stroke-width:0.216;stroke-linecap:butt;stroke-linejoin:bevel;stroke:rgb(100%,100%,100%);stroke-opacity:1;stroke-miterlimit:22.926;" d="M 158.084154 123.064094 L 152.289232 107.708386 L 31.822775 107.708386 L 7.514776 123.064094 Z M 158.084154 123.064094 " transform="matrix(0.356589,0,0,0.357664,0,0)"/>
<g clip-path="url(#clip29)" clip-rule="nonzero">
<g clip-path="url(#clip30)" clip-rule="nonzero">
<path style=" stroke:none;fill-rule:nonzero;fill:url(#linear13);" d="M 51.867188 43.050781 L 57.363281 37.933594 L 52.136719 32.289062 L 46.640625 37.402344 Z M 51.867188 43.050781 "/>
</g>
</g>
<path style="fill:none;stroke-width:0.216;stroke-linecap:butt;stroke-linejoin:bevel;stroke:rgb(100%,100%,100%);stroke-opacity:1;stroke-miterlimit:22.926;" d="M 150.887058 115.320711 L 146.527174 101.515864 L 140.77607 95.31242 L 143.711872 107.588249 Z M 150.887058 115.320711 " transform="matrix(0.356589,0,0,0.357664,0,0)"/>
<g clip-path="url(#clip31)" clip-rule="nonzero">
<g clip-path="url(#clip32)" clip-rule="nonzero">
<path style=" stroke:none;fill-rule:nonzero;fill:url(#linear14);" d="M 8.285156 34.089844 L 51.246094 34.089844 L 51.246094 38.480469 L 8.285156 38.480469 Z M 8.285156 34.089844 "/>
</g>
</g>
<path style="fill:none;stroke-width:0.216;stroke-linecap:butt;stroke-linejoin:bevel;stroke:rgb(100%,100%,100%);stroke-opacity:1;stroke-miterlimit:22.926;" d="M 143.711872 107.588249 L 140.77607 95.31242 L 44.387568 95.31242 L 23.23446 107.588249 Z M 143.711872 107.588249 " transform="matrix(0.356589,0,0,0.357664,0,0)"/>
<g clip-path="url(#clip33)" clip-rule="nonzero">
<g clip-path="url(#clip34)" clip-rule="nonzero">
<path style=" stroke:none;fill-rule:nonzero;fill:url(#linear15);" d="M 47.316406 36.980469 L 51.675781 32.925781 L 47.507812 28.417969 L 43.148438 32.472656 Z M 47.316406 36.980469 "/>
</g>
</g>
<path style="fill:none;stroke-width:0.216;stroke-linecap:butt;stroke-linejoin:bevel;stroke:rgb(100%,100%,100%);stroke-opacity:1;stroke-miterlimit:22.926;" d="M 136.547639 99.844866 L 135.024966 89.119898 L 129.383407 83.02567 L 129.471043 92.210698 Z M 136.547639 99.844866 " transform="matrix(0.356589,0,0,0.357664,0,0)"/>
<g clip-path="url(#clip35)" clip-rule="nonzero">
<g clip-path="url(#clip36)" clip-rule="nonzero">
<path style=" stroke:none;fill-rule:nonzero;fill:url(#linear16);" d="M 13.941406 29.695312 L 46.167969 29.695312 L 46.167969 32.980469 L 13.941406 32.980469 Z M 13.941406 29.695312 "/>
</g>
</g>
<path style="fill:none;stroke-width:0.216;stroke-linecap:butt;stroke-linejoin:bevel;stroke:rgb(100%,100%,100%);stroke-opacity:1;stroke-miterlimit:22.926;" d="M 129.471043 92.210698 L 129.383407 83.02567 L 57.083815 83.02567 L 39.096552 92.210698 Z M 129.471043 92.210698 " transform="matrix(0.356589,0,0,0.357664,0,0)"/>
<g clip-path="url(#clip37)" clip-rule="nonzero">
<g clip-path="url(#clip38)" clip-rule="nonzero">
<path style=" stroke:none;fill-rule:nonzero;fill:url(#linear17);" d="M 42.4375 31.660156 L 46.488281 27.824219 L 42.613281 23.707031 L 38.5625 27.539062 Z M 42.4375 31.660156 "/>
</g>
</g>
<path style="fill:none;stroke-width:0.216;stroke-linecap:butt;stroke-linejoin:bevel;stroke:rgb(100%,100%,100%);stroke-opacity:1;stroke-miterlimit:22.926;" d="M 122.164402 84.248884 L 123.533713 76.625638 L 117.782609 70.553253 L 114.978261 76.625638 Z M 122.164402 84.248884 " transform="matrix(0.356589,0,0,0.357664,0,0)"/>
<g clip-path="url(#clip39)" clip-rule="nonzero">
<g clip-path="url(#clip40)" clip-rule="nonzero">
<path style=" stroke:none;fill-rule:nonzero;fill:url(#linear18);" d="M 19.5 25.234375 L 42 25.234375 L 42 27.398438 L 19.5 27.398438 Z M 19.5 25.234375 "/>
</g>
</g>
<path style="fill:none;stroke-width:0.216;stroke-linecap:butt;stroke-linejoin:bevel;stroke:rgb(100%,100%,100%);stroke-opacity:1;stroke-miterlimit:22.926;" d="M 114.978261 76.625638 L 117.782609 70.553253 L 69.560971 70.553253 L 54.684783 76.625638 Z M 114.978261 76.625638 " transform="matrix(0.356589,0,0,0.357664,0,0)"/>
<g clip-path="url(#clip41)" clip-rule="nonzero">
<g clip-path="url(#clip42)" clip-rule="nonzero">
<path style=" stroke:none;fill-rule:nonzero;fill:url(#linear19);" d="M 37.792969 26.636719 L 41.839844 22.808594 L 38.03125 18.761719 L 33.988281 22.589844 Z M 37.792969 26.636719 "/>
</g>
</g>
<path style="fill:none;stroke-width:0.216;stroke-linecap:butt;stroke-linejoin:bevel;stroke:rgb(100%,100%,100%);stroke-opacity:1;stroke-miterlimit:22.926;" d="M 107.79212 68.762117 L 112.042459 64.262436 L 106.313264 58.168208 L 100.595024 61.149793 Z M 107.79212 68.762117 " transform="matrix(0.356589,0,0,0.357664,0,0)"/>
<g clip-path="url(#clip43)" clip-rule="nonzero">
<g clip-path="url(#clip44)" clip-rule="nonzero">
<path style=" stroke:none;fill-rule:nonzero;fill:url(#linear20);" d="M 25.113281 20.804688 L 37.910156 20.804688 L 37.910156 21.871094 L 25.113281 21.871094 Z M 25.113281 20.804688 "/>
</g>
</g>
<path style="fill:none;stroke-width:0.216;stroke-linecap:butt;stroke-linejoin:bevel;stroke:rgb(100%,100%,100%);stroke-opacity:1;stroke-miterlimit:22.926;" d="M 100.595024 61.149793 L 106.313264 58.168208 L 82.158628 58.168208 L 70.426376 61.149793 Z M 100.595024 61.149793 " transform="matrix(0.356589,0,0,0.357664,0,0)"/>
<g clip-path="url(#clip45)" clip-rule="nonzero">
<g clip-path="url(#clip46)" clip-rule="nonzero">
<path style=" stroke:none;fill-rule:nonzero;fill:url(#linear21);" d="M 33.105469 21.660156 L 37.234375 17.8125 L 33.484375 13.757812 L 29.351562 17.605469 Z M 33.105469 21.660156 "/>
</g>
</g>
<path style="fill:none;stroke-width:0.216;stroke-linecap:butt;stroke-linejoin:bevel;stroke:rgb(100%,100%,100%);stroke-opacity:1;stroke-miterlimit:22.926;" d="M 93.419837 53.395488 L 100.551206 51.964764 L 94.767238 45.750399 L 86.189878 45.630261 Z M 93.419837 53.395488 " transform="matrix(0.356589,0,0,0.357664,0,0)"/>
<path style="fill:none;stroke-width:0.216;stroke-linecap:butt;stroke-linejoin:bevel;stroke:rgb(100%,100%,100%);stroke-opacity:1;stroke-miterlimit:22.926;" d="M 93.419837 53.395488 L 86.189878 45.61934 L 78.302649 53.395488 Z M 107.79212 68.762117 L 100.595024 61.149793 L 70.426376 61.149793 L 62.561056 68.762117 Z M 122.164402 84.248884 L 114.978261 76.603795 L 54.684783 76.603795 L 46.819463 84.248884 Z M 136.547639 99.844866 L 129.471043 92.210698 L 39.096552 92.210698 L 31.099779 99.844866 Z M 150.887058 115.320711 L 143.711872 107.588249 L 23.23446 107.588249 L 15.358186 115.320711 Z M 164.952615 130.457988 L 158.084154 123.064094 L 7.514776 123.064094 L 0 130.457988 Z M 164.952615 130.457988 " transform="matrix(0.356589,0,0,0.357664,0,0)"/>
<path style=" stroke:none;fill-rule:nonzero;fill:rgb(100%,100%,100%);fill-opacity:1;" d="M 2.679688 44.015625 L 0 46.660156 L 58.820312 46.660156 L 56.371094 44.015625 Z M 8.285156 38.480469 L 5.476562 41.246094 L 53.804688 41.246094 L 51.246094 38.480469 Z M 13.941406 32.980469 L 11.089844 35.710938 L 48.691406 35.710938 L 46.167969 32.980469 Z M 19.5 27.398438 L 16.699219 30.132812 L 43.558594 30.132812 L 41 27.398438 Z M 25.113281 21.871094 L 22.308594 24.59375 L 38.4375 24.59375 L 35.871094 21.871094 Z M 27.921875 19.097656 L 33.3125 19.097656 L 30.734375 16.316406 Z M 27.921875 19.097656 "/>
<path style="fill-rule:nonzero;fill:rgb(100%,100%,100%);fill-opacity:1;stroke-width:1;stroke-linecap:butt;stroke-linejoin:miter;stroke:rgb(1.176471%,16.862745%,34.117647%);stroke-opacity:1;stroke-miterlimit:4;" d="M 7.514776 123.064094 L 0.0438179 130.392459 L 164.908798 130.392459 L 158.084154 123.064094 Z M 23.23446 107.588249 L 19.3018 111.432637 L 15.412959 115.298868 L 150.865149 115.298868 L 146.570992 110.657207 L 143.711872 107.588249 Z M 39.096552 92.210698 L 31.132643 99.812101 L 136.492867 99.812101 L 129.471043 92.210698 Z M 54.684783 76.603795 L 52.712976 78.547832 L 46.852327 84.227041 L 122.153448 84.227041 L 114.978261 76.603795 Z M 70.426376 61.149793 L 62.582965 68.740274 L 107.770211 68.740274 L 104.27573 65.037867 L 100.595024 61.149793 Z M 78.302649 53.395488 L 93.419837 53.395488 L 86.189878 45.61934 Z M 78.302649 53.395488 " transform="matrix(0.356589,0,0,0.357664,0,0)"/>
<path style=" stroke:none;fill-rule:nonzero;fill:rgb(1.176471%,18.431373%,32.54902%);fill-opacity:1;" d="M 216.253906 31.527344 C 218.597656 31.527344 220.535156 30.707031 222.066406 29.054688 C 223.597656 27.40625 224.355469 25.34375 224.355469 22.855469 C 224.355469 20.398438 223.589844 18.335938 222.042969 16.65625 C 220.5 14.980469 218.566406 14.136719 216.253906 14.136719 C 213.90625 14.136719 211.964844 14.976562 210.425781 16.648438 C 208.875 18.324219 208.101562 20.390625 208.101562 22.855469 C 208.101562 25.371094 208.863281 27.441406 210.386719 29.078125 C 211.90625 30.710938 213.867188 31.527344 216.253906 31.527344 M 230.046875 22.855469 C 230.046875 24.707031 229.699219 26.464844 229.011719 28.113281 C 228.320312 29.777344 227.324219 31.230469 226.027344 32.472656 C 224.6875 33.769531 223.179688 34.753906 221.488281 35.4375 C 219.800781 36.121094 218.058594 36.464844 216.253906 36.464844 C 214.683594 36.464844 213.132812 36.199219 211.621094 35.664062 C 210.113281 35.128906 208.71875 34.351562 207.457031 33.347656 C 205.828125 32.046875 204.589844 30.496094 203.722656 28.683594 C 202.859375 26.878906 202.425781 24.933594 202.425781 22.855469 C 202.425781 20.984375 202.765625 19.230469 203.449219 17.597656 C 204.128906 15.960938 205.125 14.503906 206.449219 13.222656 C 207.75 11.960938 209.253906 10.984375 210.96875 10.289062 C 212.675781 9.582031 214.449219 9.234375 216.253906 9.234375 C 218.058594 9.234375 219.820312 9.582031 221.515625 10.289062 C 223.214844 10.984375 224.722656 11.960938 226.027344 13.222656 C 227.339844 14.503906 228.332031 15.960938 229.011719 17.605469 C 229.699219 19.25 230.046875 20.992188 230.046875 22.855469 M 193.375 1.683594 C 193.042969 3.183594 192.589844 4.277344 191.996094 4.949219 C 191.402344 5.632812 190.636719 5.96875 189.695312 5.96875 C 189.449219 5.96875 189.21875 5.957031 189.007812 5.925781 C 188.785156 5.890625 188.578125 5.839844 188.371094 5.777344 L 186.824219 5.308594 C 186.585938 5.242188 186.367188 5.195312 186.195312 5.167969 C 186.015625 5.144531 185.835938 5.136719 185.65625 5.136719 C 185.253906 5.136719 184.9375 5.242188 184.691406 5.46875 C 184.4375 5.683594 184.242188 6.035156 184.105469 6.515625 L 182.148438 6.515625 C 182.457031 5.066406 182.910156 4.007812 183.492188 3.34375 C 184.074219 2.671875 184.832031 2.335938 185.773438 2.335938 C 185.976562 2.335938 186.210938 2.355469 186.476562 2.398438 C 186.734375 2.441406 187.003906 2.5 187.289062 2.589844 L 188.9375 3.027344 C 189.078125 3.074219 189.222656 3.109375 189.382812 3.132812 C 189.542969 3.164062 189.71875 3.175781 189.90625 3.175781 C 190.300781 3.175781 190.609375 3.050781 190.863281 2.808594 C 191.117188 2.566406 191.300781 2.191406 191.429688 1.683594 Z M 174.660156 35.78125 L 184.511719 9.820312 L 190.851562 9.820312 L 200.835938 35.78125 L 194.542969 35.78125 L 192.4375 30.257812 L 182.414062 30.257812 L 180.605469 35.78125 Z M 191.144531 25.902344 L 188.242188 17.511719 C 188.164062 17.265625 188.054688 16.835938 187.929688 16.238281 C 187.792969 15.632812 187.664062 14.898438 187.515625 14.019531 C 187.367188 14.863281 187.21875 15.613281 187.074219 16.28125 C 186.933594 16.957031 186.832031 17.390625 186.765625 17.621094 L 183.964844 25.902344 Z M 157.078125 35.78125 L 157.078125 9.820312 L 172.316406 9.820312 L 172.316406 14.503906 L 162.613281 14.503906 L 162.613281 19.839844 L 172.316406 19.839844 L 172.316406 24.566406 L 162.613281 24.566406 L 162.613281 31.058594 L 172.316406 31.058594 L 172.316406 35.78125 Z M 139.21875 35.78125 L 139.21875 9.820312 L 144.761719 9.820312 L 144.761719 31.058594 L 153.589844 31.058594 L 153.589844 35.78125 Z M 127.792969 9.820312 L 133.332031 9.820312 L 133.332031 35.78125 L 127.792969 35.78125 Z M 97.484375 35.78125 L 97.484375 9.820312 L 103.238281 9.820312 L 114.703125 24.925781 C 115.023438 25.351562 115.386719 25.949219 115.78125 26.726562 C 116.171875 27.503906 116.582031 28.414062 117.011719 29.46875 C 116.878906 28.695312 116.785156 27.941406 116.726562 27.179688 C 116.671875 26.417969 116.636719 25.476562 116.636719 24.34375 L 116.636719 9.820312 L 121.921875 9.820312 L 121.921875 35.78125 L 116.492188 35.78125 L 104.71875 20.382812 C 104.394531 19.964844 104.027344 19.363281 103.640625 18.585938 C 103.246094 17.8125 102.835938 16.882812 102.402344 15.8125 C 102.53125 16.558594 102.632812 17.308594 102.683594 18.070312 C 102.738281 18.832031 102.773438 19.804688 102.773438 20.953125 L 102.773438 35.78125 Z M 226.21875 44.628906 C 226.21875 44.0625 226.027344 43.585938 225.65625 43.1875 C 225.277344 42.792969 224.8125 42.597656 224.265625 42.597656 C 223.710938 42.597656 223.234375 42.785156 222.847656 43.164062 C 222.445312 43.546875 222.246094 44.011719 222.246094 44.558594 C 222.246094 45.101562 222.441406 45.566406 222.816406 45.976562 C 223.207031 46.367188 223.671875 46.570312 224.210938 46.570312 C 224.75 46.570312 225.21875 46.386719 225.625 46.003906 C 226.019531 45.628906 226.21875 45.171875 226.21875 44.628906 M 227.074219 44.628906 C 227.074219 45.402344 226.796875 46.0625 226.242188 46.601562 C 225.675781 47.15625 225 47.429688 224.210938 47.429688 C 223.417969 47.429688 222.738281 47.15625 222.175781 46.601562 C 221.605469 46.0625 221.328125 45.398438 221.328125 44.609375 C 221.328125 43.820312 221.601562 43.140625 222.15625 42.578125 C 222.695312 42.015625 223.367188 41.734375 224.148438 41.734375 C 224.953125 41.734375 225.640625 42.015625 226.21875 42.578125 C 226.792969 43.136719 227.074219 43.820312 227.074219 44.628906 M 216.925781 47.261719 L 215.964844 47.261719 L 215.964844 41.929688 L 216.925781 41.929688 Z M 217.078125 39.382812 C 217.078125 39.570312 217.015625 39.730469 216.898438 39.84375 C 216.769531 39.96875 216.625 40.035156 216.4375 40.035156 C 216.253906 40.035156 216.101562 39.96875 215.980469 39.84375 C 215.851562 39.730469 215.792969 39.570312 215.792969 39.382812 C 215.792969 39.203125 215.851562 39.042969 215.980469 38.925781 C 216.101562 38.800781 216.253906 38.742188 216.4375 38.742188 C 216.625 38.742188 216.769531 38.800781 216.898438 38.925781 C 217.015625 39.042969 217.078125 39.203125 217.078125 39.382812 M 212.109375 42.136719 L 211.554688 42.902344 C 211.339844 42.707031 211.136719 42.609375 210.949219 42.609375 C 210.652344 42.609375 210.359375 42.785156 210.078125 43.152344 C 209.785156 43.511719 209.640625 43.8125 209.640625 44.054688 L 209.640625 47.261719 L 208.714844 47.261719 L 208.714844 41.953125 L 209.566406 41.953125 L 209.566406 43.1875 C 209.679688 42.804688 209.882812 42.46875 210.171875 42.183594 C 210.472656 41.898438 210.8125 41.757812 211.179688 41.757812 C 211.476562 41.757812 211.789062 41.882812 212.109375 42.136719 M 203.109375 39.425781 L 201.605469 41.128906 L 200.855469 41.128906 L 201.835938 39.425781 Z M 203.144531 44.636719 C 203.144531 44.089844 202.992188 43.632812 202.683594 43.257812 C 202.351562 42.839844 201.894531 42.628906 201.328125 42.628906 C 200.820312 42.628906 200.375 42.839844 200.019531 43.257812 C 199.652344 43.671875 199.472656 44.136719 199.472656 44.660156 C 199.472656 45.175781 199.640625 45.621094 199.984375 46.003906 C 200.324219 46.394531 200.773438 46.59375 201.328125 46.59375 C 201.917969 46.59375 202.378906 46.386719 202.707031 45.976562 C 202.996094 45.605469 203.144531 45.164062 203.144531 44.636719 M 204.0625 47.261719 L 203.199219 47.261719 L 203.199219 46.199219 C 203.003906 46.578125 202.71875 46.871094 202.328125 47.082031 C 201.941406 47.289062 201.527344 47.398438 201.097656 47.398438 C 200.351562 47.398438 199.726562 47.101562 199.226562 46.515625 C 198.761719 45.964844 198.527344 45.300781 198.527344 44.542969 C 198.527344 43.835938 198.773438 43.203125 199.261719 42.640625 C 199.785156 42.050781 200.402344 41.757812 201.125 41.757812 C 201.535156 41.757812 201.921875 41.855469 202.285156 42.046875 C 202.636719 42.246094 202.933594 42.527344 203.179688 42.902344 L 203.179688 41.910156 L 204.0625 41.910156 Z M 195.109375 42.714844 L 194.148438 42.714844 L 194.148438 47.261719 L 193.226562 47.261719 L 193.226562 42.714844 L 192.390625 42.714844 L 192.390625 41.972656 L 193.226562 41.972656 L 193.226562 39.820312 L 194.148438 39.820312 L 194.148438 41.972656 L 195.109375 41.972656 Z M 188.3125 47.261719 L 187.363281 47.261719 L 187.363281 41.929688 L 188.3125 41.929688 Z M 188.472656 39.382812 C 188.472656 39.570312 188.410156 39.730469 188.285156 39.84375 C 188.164062 39.96875 188.011719 40.035156 187.832031 40.035156 C 187.648438 40.035156 187.492188 39.96875 187.371094 39.84375 C 187.25 39.730469 187.183594 39.570312 187.183594 39.382812 C 187.183594 39.203125 187.25 39.042969 187.371094 38.925781 C 187.492188 38.800781 187.648438 38.742188 187.832031 38.742188 C 188.011719 38.742188 188.164062 38.800781 188.285156 38.925781 C 188.410156 39.042969 188.472656 39.203125 188.472656 39.382812 M 182.921875 45.695312 C 182.921875 46.199219 182.769531 46.601562 182.480469 46.894531 C 182.148438 47.21875 181.652344 47.375 180.988281 47.375 C 180.5625 47.375 180.160156 47.289062 179.777344 47.117188 C 179.410156 46.957031 179.09375 46.699219 178.84375 46.367188 L 179.644531 45.824219 C 179.773438 46.074219 179.949219 46.277344 180.179688 46.421875 C 180.417969 46.566406 180.6875 46.636719 180.960938 46.636719 C 181.246094 46.636719 181.484375 46.585938 181.664062 46.480469 C 181.902344 46.339844 182.023438 46.144531 182.023438 45.875 C 182.023438 45.554688 181.773438 45.296875 181.285156 45.109375 C 180.796875 44.914062 180.316406 44.730469 179.839844 44.542969 C 179.3125 44.25 179.058594 43.847656 179.058594 43.324219 C 179.058594 42.820312 179.265625 42.410156 179.679688 42.117188 C 180.046875 41.847656 180.507812 41.710938 181.058594 41.710938 C 181.460938 41.710938 181.816406 41.800781 182.109375 41.972656 C 182.414062 42.15625 182.671875 42.429688 182.90625 42.78125 L 182.148438 43.234375 C 182.078125 43.015625 181.910156 42.828125 181.652344 42.667969 C 181.382812 42.523438 181.113281 42.449219 180.832031 42.449219 C 180.605469 42.449219 180.410156 42.527344 180.242188 42.6875 C 180.066406 42.855469 179.976562 43.042969 179.976562 43.257812 C 179.976562 43.609375 180.464844 43.933594 181.453125 44.21875 C 182.417969 44.515625 182.921875 45.007812 182.921875 45.695312 M 175.691406 42.136719 L 175.144531 42.902344 C 174.929688 42.707031 174.726562 42.609375 174.539062 42.609375 C 174.238281 42.609375 173.945312 42.785156 173.660156 43.152344 C 173.371094 43.511719 173.230469 43.8125 173.230469 44.054688 L 173.230469 47.261719 L 172.296875 47.261719 L 172.296875 41.953125 L 173.15625 41.953125 L 173.15625 43.1875 C 173.265625 42.804688 173.46875 42.46875 173.765625 42.183594 C 174.066406 41.898438 174.398438 41.757812 174.757812 41.757812 C 175.066406 41.757812 175.375 41.882812 175.691406 42.136719 M 167.148438 44 C 167.058594 43.570312 166.851562 43.222656 166.53125 42.941406 C 166.21875 42.675781 165.832031 42.539062 165.398438 42.539062 C 165.007812 42.539062 164.671875 42.679688 164.378906 42.960938 C 164.078125 43.257812 163.890625 43.605469 163.792969 44 Z M 168.09375 46.003906 C 167.773438 46.441406 167.386719 46.78125 166.921875 47.019531 C 166.460938 47.261719 165.960938 47.375 165.445312 47.375 C 164.636719 47.375 163.980469 47.089844 163.496094 46.527344 C 163.03125 45.992188 162.804688 45.347656 162.804688 44.566406 C 162.804688 43.804688 163.03125 43.152344 163.480469 42.609375 C 163.976562 42.015625 164.621094 41.710938 165.421875 41.710938 C 166.351562 41.710938 167.046875 42.015625 167.5 42.628906 C 167.882812 43.140625 168.070312 43.828125 168.070312 44.695312 L 163.742188 44.695312 C 163.742188 45.207031 163.910156 45.652344 164.242188 46.015625 C 164.570312 46.386719 164.980469 46.570312 165.46875 46.570312 C 165.90625 46.570312 166.28125 46.480469 166.582031 46.289062 C 166.824219 46.140625 167.074219 45.882812 167.332031 45.53125 Z M 159.359375 41.910156 L 156.847656 47.445312 L 156.605469 47.445312 L 154.007812 41.910156 L 155.136719 41.910156 L 156.777344 45.84375 L 158.289062 41.910156 Z M 150.007812 47.261719 L 149.054688 47.261719 L 149.054688 41.929688 L 150.007812 41.929688 Z M 150.164062 39.382812 C 150.164062 39.570312 150.105469 39.730469 149.980469 39.84375 C 149.859375 39.96875 149.710938 40.035156 149.523438 40.035156 C 149.339844 40.035156 149.183594 39.96875 149.0625 39.84375 C 148.9375 39.730469 148.878906 39.570312 148.878906 39.382812 C 148.878906 39.203125 148.9375 39.042969 149.0625 38.925781 C 149.183594 38.800781 149.339844 38.742188 149.523438 38.742188 C 149.710938 38.742188 149.859375 38.800781 149.980469 38.925781 C 150.105469 39.042969 150.164062 39.203125 150.164062 39.382812 M 144.308594 47.261719 L 143.332031 47.261719 L 143.332031 43.527344 C 143.332031 43.324219 143.203125 43.121094 142.953125 42.914062 C 142.695312 42.710938 142.4375 42.609375 142.175781 42.609375 C 141.875 42.609375 141.570312 42.738281 141.246094 42.984375 C 140.917969 43.25 140.75 43.496094 140.75 43.730469 L 140.75 47.261719 L 139.820312 47.261719 L 139.820312 41.910156 L 140.726562 41.910156 L 140.726562 42.828125 C 140.929688 42.496094 141.160156 42.246094 141.417969 42.078125 C 141.710938 41.890625 142.050781 41.792969 142.425781 41.792969 C 142.949219 41.792969 143.394531 41.972656 143.769531 42.335938 C 144.125 42.699219 144.308594 43.101562 144.308594 43.554688 Z M 135.066406 38.742188 L 135.058594 44.542969 C 135.058594 45.386719 134.734375 46.089844 134.097656 46.636719 C 133.453125 47.191406 132.625 47.464844 131.589844 47.464844 C 130.613281 47.464844 129.816406 47.179688 129.207031 46.617188 C 128.582031 46.058594 128.277344 45.351562 128.277344 44.5 L 128.277344 38.742188 L 129.296875 38.742188 L 129.296875 44.5 C 129.296875 45.144531 129.539062 45.652344 130.007812 46.027344 C 130.445312 46.375 131.015625 46.546875 131.707031 46.546875 C 132.335938 46.546875 132.875 46.347656 133.339844 45.945312 C 133.800781 45.546875 134.023438 45.0625 134.023438 44.5 L 134.023438 38.742188 Z M 119.320312 44.628906 C 119.320312 44.0625 119.136719 43.585938 118.757812 43.1875 C 118.378906 42.792969 117.910156 42.597656 117.367188 42.597656 C 116.8125 42.597656 116.34375 42.785156 115.949219 43.164062 C 115.550781 43.546875 115.347656 44.011719 115.347656 44.558594 C 115.347656 45.101562 115.542969 45.566406 115.925781 45.976562 C 116.304688 46.367188 116.769531 46.570312 117.3125 46.570312 C 117.855469 46.570312 118.324219 46.386719 118.730469 46.003906 C 119.128906 45.628906 119.320312 45.171875 119.320312 44.628906 M 120.183594 44.628906 C 120.183594 45.402344 119.898438 46.0625 119.34375 46.601562 C 118.78125 47.15625 118.105469 47.429688 117.3125 47.429688 C 116.519531 47.429688 115.84375 47.15625 115.28125 46.601562 C 114.710938 46.0625 114.433594 45.398438 114.433594 44.609375 C 114.433594 43.820312 114.703125 43.140625 115.257812 42.578125 C 115.800781 42.015625 116.46875 41.734375 117.257812 41.734375 C 118.058594 41.734375 118.746094 42.015625 119.320312 42.578125 C 119.898438 43.136719 120.183594 43.820312 120.183594 44.628906 M 111.078125 42.136719 L 110.535156 42.902344 C 110.308594 42.707031 110.117188 42.609375 109.921875 42.609375 C 109.621094 42.609375 109.332031 42.785156 109.046875 43.152344 C 108.757812 43.511719 108.617188 43.8125 108.617188 44.054688 L 108.617188 47.261719 L 107.683594 47.261719 L 107.683594 41.953125 L 108.539062 41.953125 L 108.539062 43.1875 C 108.652344 42.804688 108.855469 42.46875 109.152344 42.183594 C 109.453125 41.898438 109.777344 41.757812 110.152344 41.757812 C 110.453125 41.757812 110.753906 41.882812 111.078125 42.136719 M 103.792969 42.714844 L 102.839844 42.714844 L 102.839844 47.261719 L 101.902344 47.261719 L 101.902344 42.714844 L 101.070312 42.714844 L 101.070312 41.972656 L 101.902344 41.972656 L 101.902344 39.820312 L 102.839844 39.820312 L 102.839844 41.972656 L 103.792969 41.972656 Z M 97.171875 47.261719 L 96.195312 47.261719 L 96.195312 43.527344 C 96.195312 43.324219 96.066406 43.121094 95.8125 42.914062 C 95.554688 42.710938 95.296875 42.609375 95.027344 42.609375 C 94.738281 42.609375 94.421875 42.738281 94.097656 42.984375 C 93.773438 43.25 93.613281 43.496094 93.613281 43.730469 L 93.613281 47.261719 L 92.679688 47.261719 L 92.679688 41.910156 L 93.585938 41.910156 L 93.585938 42.828125 C 93.792969 42.496094 94.015625 42.246094 94.285156 42.078125 C 94.5625 41.890625 94.90625 41.792969 95.289062 41.792969 C 95.804688 41.792969 96.253906 41.972656 96.621094 42.335938 C 96.988281 42.699219 97.171875 43.101562 97.171875 43.554688 Z M 87.589844 44 C 87.507812 43.570312 87.304688 43.222656 86.988281 42.941406 C 86.664062 42.675781 86.285156 42.539062 85.851562 42.539062 C 85.457031 42.539062 85.117188 42.679688 84.832031 42.960938 C 84.535156 43.257812 84.332031 43.605469 84.246094 44 Z M 88.550781 46.003906 C 88.230469 46.441406 87.832031 46.78125 87.371094 47.019531 C 86.902344 47.261719 86.417969 47.375 85.902344 47.375 C 85.082031 47.375 84.433594 47.089844 83.941406 46.527344 C 83.488281 45.992188 83.253906 45.347656 83.253906 44.566406 C 83.253906 43.804688 83.484375 43.152344 83.929688 42.609375 C 84.429688 42.015625 85.078125 41.710938 85.871094 41.710938 C 86.808594 41.710938 87.503906 42.015625 87.949219 42.628906 C 88.332031 43.140625 88.519531 43.828125 88.519531 44.695312 L 84.199219 44.695312 C 84.199219 45.207031 84.363281 45.652344 84.691406 46.015625 C 85.023438 46.386719 85.429688 46.570312 85.917969 46.570312 C 86.363281 46.570312 86.738281 46.480469 87.03125 46.289062 C 87.28125 46.140625 87.523438 45.882812 87.789062 45.53125 Z M 79.328125 46.878906 C 78.535156 47.226562 77.726562 47.398438 76.902344 47.398438 C 75.515625 47.398438 74.390625 46.957031 73.542969 46.066406 C 72.753906 45.234375 72.367188 44.214844 72.367188 43 C 72.367188 41.824219 72.765625 40.789062 73.570312 39.902344 C 74.421875 38.960938 75.503906 38.492188 76.8125 38.492188 C 77.328125 38.492188 77.894531 38.585938 78.527344 38.773438 C 78.730469 38.835938 79 38.933594 79.328125 39.078125 L 79.328125 40.203125 C 78.597656 39.667969 77.824219 39.414062 77.019531 39.414062 C 75.976562 39.414062 75.113281 39.773438 74.425781 40.511719 C 73.773438 41.222656 73.441406 42.046875 73.441406 43 C 73.441406 43.957031 73.761719 44.773438 74.414062 45.453125 C 75.109375 46.167969 75.988281 46.527344 77.070312 46.527344 C 77.445312 46.527344 77.808594 46.457031 78.152344 46.316406 C 78.507812 46.179688 78.898438 45.964844 79.328125 45.679688 Z M 91.769531 9.820312 L 91.769531 25.980469 C 91.769531 29.5 90.851562 32.136719 88.996094 33.867188 C 87.144531 35.601562 84.355469 36.464844 80.621094 36.464844 C 76.84375 36.464844 74.023438 35.601562 72.175781 33.867188 C 70.324219 32.136719 69.402344 29.5 69.402344 25.980469 L 69.402344 9.820312 L 74.902344 9.820312 L 74.902344 25.113281 C 74.902344 27.253906 75.371094 28.859375 76.3125 29.945312 C 77.261719 31.027344 78.667969 31.570312 80.542969 31.570312 C 82.425781 31.570312 83.855469 31.027344 84.816406 29.933594 C 85.785156 28.84375 86.265625 27.238281 86.265625 25.113281 L 86.265625 9.820312 Z M 91.769531 9.820312 "/>
</g>
</svg>
